# xmcd
#
# Track frame offsets:
#	150
#	6514
#	20858
#	36571
#	48861
#	61220
#	72531
#	81696
#	91837
#	105387
#	117137
#	132940
#	146512
#	160593
#	173614
#	187846
#	203001
#	219069
#	233164
#	251085
#	263518
#	278148
#	292053
#	308460
#
# Disc length: 4306 seconds
#
# Revision: 0
# Processed by: cddbd v1.5.2PL0 Copyright (c) Steve Scherf et al.
# Submitted via: EasyCDDAExtractor 15.3.0.1
#
DISCID=4f10d018
DTITLE=Vários - Canto De Ituiutaba
DYEAR=1900
DGENRE=Sertanejo
TTITLE0=Euripedes - Abertura
TTITLE1=José Maria Da Costa - Saudades De Ituiutaba
TTITLE2=Nilton Cesar - Ranhco Da Minha Cidade
TTITLE3=Praião E Prainha - De São Paulo Á Brasilia
TTITLE4=Silveira E Barrinha - Mineiro De Uberaba
TTITLE5=Nilton Cesar - Querida Ituiutaba
TTITLE6=Divino E Donizetti - Saudade De Ituiutaba
TTITLE7=Solevante E Soleny - Mineiro De Ituiutaba
TTITLE8=Criolo E Seresteiro - Minha Cidade
TTITLE9=Celso Ricardi - Saudade De Ituiutaba
TTITLE10=Teodoro E Sampaio - Paixão Mineira
TTITLE11=Praião E Prainha - Saudade De Ituiutaba
TTITLE12=Divino E Donizete - Estado Dos Meus Sonhos
TTITLE13=Gino E Geno - Meu Triangulo Mineiro
TTITLE14=Solevante E Juvenil - Peão Consagrado
TTITLE15=Rei Gaspar E Blatazar - Ituiutaba Flor De Minas
TTITLE16=Leonardo - Amor De Trem
TTITLE17=Sueli - Princesa Do Pontal
TTITLE18=Tony E Gil - Mineira De Ituiutaba
TTITLE19=Monetário E Finaceiro - Flor De Minas
TTITLE20=Ronaldo Viola E João Carvalho - Batidão Lascado
TTITLE21=Pedro Bento E Zé Da Estrada - Saudadções A Minas
TTITLE22=Janio E Junior - Visita Aos Amigos
TTITLE23=Tião Carreiro E Pardinho - Saudade De Ituiutaba
EXTD=
EXTT0=
EXTT1=
EXTT2=
EXTT3=
EXTT4=
EXTT5=
EXTT6=
EXTT7=
EXTT8=
EXTT9=
EXTT10=
EXTT11=
EXTT12=
EXTT13=
EXTT14=
EXTT15=
EXTT16=
EXTT17=
EXTT18=
EXTT19=
EXTT20=
EXTT21=
EXTT22=
EXTT23=
PLAYORDER=
